<svg width="60" height="60" viewBox="0 0 60 60" fill="none" xmlns="http://www.w3.org/2000/svg">
<path d="M31.875 24.13L35.1525 29.12C35.4856 29.5892 35.9421 29.8682 36.4261 29.8986C36.9101 29.929 37.3842 29.7083 37.7489 29.2828C38.1135 28.8573 38.3405 28.2602 38.3822 27.6165C38.4239 26.9727 38.2771 26.3325 37.9725 25.83L31.41 15.83C31.234 15.5623 31.0172 15.3478 30.774 15.2009C30.5309 15.0539 30.267 14.9779 30 14.9779C29.733 14.9779 29.4691 15.0539 29.226 15.2009C28.9828 15.3478 28.766 15.5623 28.59 15.83L22.0275 25.83C21.7229 26.3325 21.5761 26.9727 21.6178 27.6165C21.6595 28.2602 21.8865 28.8573 22.2511 29.2828C22.6158 29.7083 23.0899 29.929 23.5739 29.8986C24.0579 29.8682 24.5144 29.5892 24.8475 29.12L28.125 24.13V42.525C28.125 43.188 28.3225 43.8239 28.6742 44.2928C29.0258 44.7616 29.5027 45.025 30 45.025C30.4973 45.025 30.9742 44.7616 31.3258 44.2928C31.6775 43.8239 31.875 43.188 31.875 42.525V24.125V24.13ZM7.5 60C5.51088 60 3.60322 58.9464 2.1967 57.0711C0.790176 55.1957 0 52.6522 0 50V10C0 7.34784 0.790176 4.8043 2.1967 2.92893C3.60322 1.05357 5.51088 0 7.5 0H52.5C54.4891 0 56.3968 1.05357 57.8033 2.92893C59.2098 4.8043 60 7.34784 60 10V50C60 52.6522 59.2098 55.1957 57.8033 57.0711C56.3968 58.9464 54.4891 60 52.5 60H7.5ZM3.75 50C3.75 51.3261 4.14509 52.5979 4.84835 53.5355C5.55161 54.4732 6.50544 55 7.5 55H52.5C53.4946 55 54.4484 54.4732 55.1517 53.5355C55.8549 52.5979 56.25 51.3261 56.25 50V25H41.8725C41.6357 24.0938 41.2703 23.2569 40.7962 22.535L34.2337 12.535C33.7058 11.7303 33.0549 11.0853 32.3247 10.6435C31.5945 10.2016 30.8019 9.97301 30 9.97301C29.1981 9.97301 28.4055 10.2016 27.6753 10.6435C26.9451 11.0853 26.2942 11.7303 25.7663 12.535L19.2037 22.535C18.7162 23.285 18.3563 24.12 18.1275 25H3.75V50Z" fill="#EDCE8C"/>
</svg>
