<svg width="30" height="32" viewBox="0 0 30 32" fill="none" xmlns="http://www.w3.org/2000/svg">
<path d="M29.0178 0.186069C24.5768 4.14324 19.2405 8.99404 15.8007 13.9088C14.2837 16.0765 12.5967 18.6279 11.494 21.0368C10.8644 22.3141 9.72958 24.31 9.3427 26.229C7.2267 24.2022 4.95384 21.9017 2.62835 20.0998C0.970814 18.816 -1.1715 21.4335 0.771846 22.939C4.25482 25.6361 7.15143 28.9956 10.5391 31.8131C11.9561 32.9901 12.4646 28.2661 12.6762 27.1937C13.5194 23.6603 14.9033 21.5088 16.6687 17.6546C19.3642 11.76 22.5656 6.91791 27.2855 2.71308C30.4127 -0.289745 30.8675 -0.843596 28.4962 1.26993" fill="#EDCE8C"/>
</svg>
