<svg width="66" height="66" viewBox="0 0 66 66" fill="none" xmlns="http://www.w3.org/2000/svg">
<path d="M33 16.5219C36.6819 16.5219 39.6667 13.4949 39.6667 9.76094C39.6667 6.02698 36.6819 3 33 3C29.3181 3 26.3334 6.02698 26.3334 9.76094C26.3334 13.4949 29.3181 16.5219 33 16.5219Z" stroke="#EDCE8C" stroke-width="6" stroke-linecap="round" stroke-linejoin="round"/>
<path d="M58.71 44.0051C59.3468 41.6583 59.6686 39.2352 59.6667 36.8013C59.6667 34.2186 59.31 31.7204 58.6434 29.3541M52.0767 17.9078C48.6615 14.3572 44.3484 11.8287 39.61 10.5992L52.0767 17.9078ZM26.3734 10.5992C21.5565 11.8521 17.1816 14.447 13.7434 18.0904L26.3734 10.5992ZM7.47338 28.9586C6.71558 31.5018 6.33145 34.1445 6.33338 36.8013C6.33338 39.2961 6.66672 41.7131 7.29005 44.0084L7.47338 28.9586ZM13.8234 55.5967C17.2448 59.1919 21.5821 61.7545 26.3534 62.9999L13.8234 55.5967ZM39.68 62.9898C44.4355 61.7413 48.758 59.1839 52.17 55.6001L39.68 62.9898Z" stroke="#EDCE8C" stroke-width="6" stroke-linecap="round" stroke-linejoin="round"/>
<path d="M9.66667 57.0876C13.3486 57.0876 16.3333 54.0606 16.3333 50.3266C16.3333 46.5927 13.3486 43.5657 9.66667 43.5657C5.98477 43.5657 3 46.5927 3 50.3266C3 54.0606 5.98477 57.0876 9.66667 57.0876Z" stroke="#EDCE8C" stroke-width="6" stroke-linecap="round" stroke-linejoin="round"/>
<path d="M56.3334 57.0876C60.0153 57.0876 63 54.0606 63 50.3266C63 46.5927 60.0153 43.5657 56.3334 43.5657C52.6515 43.5657 49.6667 46.5927 49.6667 50.3266C49.6667 54.0606 52.6515 57.0876 56.3334 57.0876Z" stroke="#EDCE8C" stroke-width="6" stroke-linecap="round" stroke-linejoin="round"/>
</svg>
