<svg width="47" height="48" viewBox="0 0 47 48" fill="none" xmlns="http://www.w3.org/2000/svg">
<rect y="0.5" width="47" height="47" rx="23.5" fill="#DD6B30"/>
<path d="M23.4962 19.2979C20.9072 19.2979 18.7943 21.4108 18.7943 23.9999C18.7943 26.589 20.9072 28.7019 23.4962 28.7019C26.0853 28.7019 28.1981 26.589 28.1981 23.9999C28.1981 21.4108 26.0853 19.2979 23.4962 19.2979ZM37.5984 23.9999C37.5984 22.0528 37.6161 20.1233 37.5067 18.1797C37.3974 15.9222 36.8824 13.9186 35.2316 12.2678C33.5773 10.6135 31.5773 10.102 29.3198 9.99266C27.3728 9.88331 25.4433 9.90095 23.4998 9.90095C21.5527 9.90095 19.6232 9.88331 17.6797 9.99266C15.4222 10.102 13.4187 10.617 11.7679 12.2678C10.1136 13.9222 9.60213 15.9222 9.49278 18.1797C9.38344 20.1268 9.40107 22.0563 9.40107 23.9999C9.40107 25.9435 9.38344 27.8765 9.49278 29.8201C9.60213 32.0776 10.1171 34.0812 11.7679 35.732C13.4222 37.3863 15.4222 37.8978 17.6797 38.0071C19.6268 38.1165 21.5562 38.0989 23.4998 38.0989C25.4468 38.0989 27.3763 38.1165 29.3198 38.0071C31.5773 37.8978 33.5808 37.3828 35.2316 35.732C36.8859 34.0776 37.3974 32.0776 37.5067 29.8201C37.6196 27.8765 37.5984 25.947 37.5984 23.9999ZM23.4962 31.2346C19.4927 31.2346 16.2617 28.0035 16.2617 23.9999C16.2617 19.9963 19.4927 16.7652 23.4962 16.7652C27.4997 16.7652 30.7308 19.9963 30.7308 23.9999C30.7308 28.0035 27.4997 31.2346 23.4962 31.2346ZM31.0271 18.1586C30.0923 18.1586 29.3375 17.4037 29.3375 16.4689C29.3375 15.5342 30.0923 14.7793 31.0271 14.7793C31.9618 14.7793 32.7166 15.5342 32.7166 16.4689C32.7169 16.6909 32.6734 16.9107 32.5886 17.1159C32.5038 17.321 32.3793 17.5073 32.2224 17.6643C32.0654 17.8213 31.8791 17.9457 31.674 18.0305C31.4688 18.1153 31.249 18.1588 31.0271 18.1586Z" fill="white"/>
</svg>
