<svg width="53" height="53" viewBox="0 0 53 53" fill="none" xmlns="http://www.w3.org/2000/svg">
<path d="M33.4855 19.9774C36.0109 19.9774 38.0605 22.1349 38.0605 24.7932V33.7368H38.05V36.4887H14.5215V28.233H14.5267V24.7932C14.5267 22.1349 16.5737 19.9774 19.1017 19.9774H33.4855ZM52.4286 24.7932C52.4286 23.516 51.9466 22.291 51.0886 21.3879C50.2306 20.4848 49.067 19.9774 47.8536 19.9774H39.0304C40.0578 21.2845 40.6748 22.9632 40.6748 24.7932V28.233H40.6643V36.4887H50.4679C50.9879 36.4887 51.4866 36.2712 51.8543 35.8842C52.222 35.4971 52.4286 34.9721 52.4286 34.4248V24.7932ZM11.9072 33.7368H11.9124V24.7932L11.9359 24.1878C12.0488 22.6414 12.6152 21.1702 13.5568 19.9774H4.71788L4.34143 19.9939C3.19715 20.0934 2.13023 20.6421 1.35246 21.5311C0.574687 22.4202 0.142926 23.5846 0.142883 24.7932V34.4248C0.142883 35.564 1.02128 36.4887 2.1036 36.4887H11.9072V33.7368ZM26.2857 0.714233C28.3658 0.714233 30.3607 1.58402 31.8315 3.13225C33.3023 4.68049 34.1286 6.78034 34.1286 8.96987C34.1286 11.1594 33.3023 13.2593 31.8315 14.8075C30.3607 16.3557 28.3658 17.2255 26.2857 17.2255C24.2057 17.2255 22.2108 16.3557 20.74 14.8075C19.2692 13.2593 18.4429 11.1594 18.4429 8.96987C18.4429 6.78034 19.2692 4.68049 20.74 3.13225C22.2108 1.58402 24.2057 0.714233 26.2857 0.714233ZM43.2786 3.46611C45.012 3.46611 46.6744 4.19094 47.9 5.48113C49.1257 6.77132 49.8143 8.5212 49.8143 10.3458C49.8143 12.1704 49.1257 13.9203 47.9 15.2105C46.6744 16.5007 45.012 17.2255 43.2786 17.2255C41.5452 17.2255 39.8828 16.5007 38.6572 15.2105C37.4315 13.9203 36.7429 12.1704 36.7429 10.3458C36.7429 8.5212 37.4315 6.77132 38.6572 5.48113C39.8828 4.19094 41.5452 3.46611 43.2786 3.46611ZM9.29288 3.46611C11.0263 3.46611 12.6886 4.19094 13.9143 5.48113C15.14 6.77132 15.8286 8.5212 15.8286 10.3458C15.8286 12.1704 15.14 13.9203 13.9143 15.2105C12.6886 16.5007 11.0263 17.2255 9.29288 17.2255C7.5595 17.2255 5.89712 16.5007 4.67144 15.2105C3.44575 13.9203 2.75717 12.1704 2.75717 10.3458C2.75717 8.5212 3.44575 6.77132 4.67144 5.48113C5.89712 4.19094 7.5595 3.46611 9.29288 3.46611ZM0.142883 41.3045C0.142883 40.7571 0.349458 40.2321 0.717163 39.8451C1.08487 39.458 1.58358 39.2405 2.1036 39.2405H50.4679C50.9879 39.2405 51.4866 39.458 51.8543 39.8451C52.222 40.2321 52.4286 40.7571 52.4286 41.3045V42.6804C52.4286 45.4173 51.3957 48.0421 49.5572 49.9774C47.7187 51.9127 45.2251 52.9999 42.625 52.9999H9.94646C7.34639 52.9999 4.85281 51.9127 3.01428 49.9774C1.17576 48.0421 0.142883 45.4173 0.142883 42.6804V41.3045Z" fill="#EDCE8C"/>
</svg>
