<svg width="60" height="60" viewBox="0 0 60 60" fill="none" xmlns="http://www.w3.org/2000/svg">
<path d="M38.262 22.1053C41.16 22.1053 43.512 24.5811 43.512 27.6316V37.8947H43.5V38.6842C43.5 39.3124 43.2629 39.9148 42.841 40.3589C42.419 40.8031 41.8467 41.0526 41.25 41.0526C40.6533 41.0526 40.081 40.8031 39.659 40.3589C39.2371 39.9148 39 39.3124 39 38.6842V31.5789H39.012V27.6316C39.012 27.4222 38.933 27.2214 38.7923 27.0733C38.6517 26.9253 38.4609 26.8421 38.262 26.8421H21.756C21.5571 26.8421 21.3663 26.9253 21.2257 27.0733C21.085 27.2214 21.006 27.4222 21.006 27.6316V37.8947H21V38.6842C21 39.3124 20.7629 39.9148 20.341 40.3589C19.919 40.8031 19.3467 41.0526 18.75 41.0526C18.1533 41.0526 17.581 40.8031 17.159 40.3589C16.7371 39.9148 16.5 39.3124 16.5 38.6842V31.5789H16.506V27.6316C16.506 24.5811 18.855 22.1053 21.756 22.1053H38.262ZM30 0C32.3869 0 34.6761 0.998118 36.364 2.77478C38.0518 4.55144 39 6.96111 39 9.47368C39 11.9863 38.0518 14.3959 36.364 16.1726C34.6761 17.9493 32.3869 18.9474 30 18.9474C27.6131 18.9474 25.3239 17.9493 23.636 16.1726C21.9482 14.3959 21 11.9863 21 9.47368C21 6.96111 21.9482 4.55144 23.636 2.77478C25.3239 0.998118 27.6131 0 30 0ZM30 4.73684C28.8065 4.73684 27.6619 5.2359 26.818 6.12423C25.9741 7.01256 25.5 8.2174 25.5 9.47368C25.5 10.73 25.9741 11.9348 26.818 12.8231C27.6619 13.7115 28.8065 14.2105 30 14.2105C31.1935 14.2105 32.3381 13.7115 33.182 12.8231C34.0259 11.9348 34.5 10.73 34.5 9.47368C34.5 8.2174 34.0259 7.01256 33.182 6.12423C32.3381 5.2359 31.1935 4.73684 30 4.73684ZM2.25 44.2105C1.65326 44.2105 1.08097 44.4601 0.659009 44.9042C0.237053 45.3484 0 45.9508 0 46.5789V48.1579C0 51.2986 1.18526 54.3107 3.29505 56.5315C5.40483 58.7524 8.26631 60 11.25 60H48.75C51.7337 60 54.5952 58.7524 56.705 56.5315C58.8147 54.3107 60 51.2986 60 48.1579V46.5789C60 45.9508 59.7629 45.3484 59.341 44.9042C58.919 44.4601 58.3467 44.2105 57.75 44.2105H2.25ZM11.25 55.2632C9.58969 55.2631 7.98763 54.6189 6.75013 53.4538C5.51262 52.2886 4.72648 50.6842 4.542 48.9474H55.458C55.2735 50.6842 54.4874 52.2886 53.2499 53.4538C52.0124 54.6189 50.4103 55.2631 48.75 55.2632H11.25Z" fill="#EDCE8C"/>
</svg>
