<svg width="52" height="52" viewBox="0 0 52 52" fill="none" xmlns="http://www.w3.org/2000/svg">
<path d="M33.7728 37.291C35.548 37.291 36.9871 35.8392 36.9871 34.0483C36.9871 32.2574 35.548 30.8056 33.7728 30.8056C31.9976 30.8056 30.5586 32.2574 30.5586 34.0483C30.5586 35.8392 31.9976 37.291 33.7728 37.291Z" fill="#EDCE8C"/>
<path d="M11.2728 14.5921C13.048 14.5921 14.4871 13.1403 14.4871 11.3494C14.4871 9.55856 13.048 8.10675 11.2728 8.10675C9.49765 8.10675 8.05856 9.55856 8.05856 11.3494C8.05856 13.1403 9.49765 14.5921 11.2728 14.5921Z" fill="#EDCE8C"/>
<path d="M43.4157 50.2618C42.1443 50.2618 40.9014 49.8814 39.8442 49.1688C38.787 48.4562 37.9631 47.4433 37.4765 46.2583C36.9899 45.0732 36.8626 43.7692 37.1107 42.5112C37.3587 41.2531 37.971 40.0975 38.87 39.1905C39.7691 38.2835 40.9146 37.6659 42.1616 37.4156C43.4086 37.1654 44.7012 37.2938 45.8758 37.7847C47.0505 38.2756 48.0545 39.1068 48.7609 40.1733C49.4673 41.2398 49.8443 42.4937 49.8443 43.7764C49.8392 45.4949 49.1603 47.1415 47.9558 48.3566C46.7513 49.5717 45.1191 50.2567 43.4157 50.2618ZM43.4157 40.5337C42.78 40.5337 42.1585 40.7239 41.63 41.0802C41.1014 41.4365 40.6894 41.943 40.4461 42.5355C40.2028 43.128 40.1392 43.78 40.2632 44.409C40.3872 45.0381 40.6934 45.6158 41.1429 46.0693C41.5924 46.5228 42.1651 46.8317 42.7887 46.9568C43.4122 47.0819 44.0584 47.0177 44.6458 46.7723C45.2331 46.5268 45.7351 46.1112 46.0883 45.578C46.4415 45.0447 46.63 44.4178 46.63 43.7764C46.6275 42.9172 46.288 42.0939 45.6858 41.4863C45.0835 40.8787 44.2674 40.5363 43.4157 40.5337Z" fill="#EDCE8C"/>
<path d="M48.2372 25.9416C48.2198 19.9268 45.8437 14.1635 41.6279 9.91041C37.412 5.65734 31.6992 3.26023 25.7372 3.24269C21.8981 3.18745 18.1178 4.19697 14.8086 6.16112L16.5764 8.91741C17.8327 8.30826 19.1202 7.76704 20.4336 7.29606C17.7768 12.5848 16.2959 18.3946 16.0943 24.3202H6.45144C6.63152 21.6431 7.40011 19.04 8.70144 16.6999L6.29072 14.5921C4.29099 18.0342 3.23694 21.9519 3.23715 25.9416C3.23673 28.9226 3.81842 31.8744 4.949 34.6286C6.07958 37.3827 7.73691 39.8852 9.82631 41.9931C11.9157 44.1009 14.3963 45.7729 17.1263 46.9135C19.8563 48.054 22.7823 48.6409 25.7372 48.6404C28.6022 48.6677 31.4436 48.1164 34.0943 47.0191L33.13 43.9385C30.4951 45.0752 27.6332 45.5749 24.7729 45.3978C21.3456 40.0798 19.4535 33.9043 19.3086 27.5629H48.0764C48.2093 27.0335 48.2634 26.4871 48.2372 25.9416ZM20.5943 44.7492C17.3984 43.7828 14.4779 42.0595 12.0764 39.723C8.88763 36.4313 6.90393 32.1429 6.45144 27.5629H16.0943C16.3154 33.557 17.8524 39.4269 20.5943 44.7492ZM19.3086 24.3202C19.4364 17.9994 21.27 11.8334 24.6122 6.48539H26.8622C30.2043 11.8334 32.0379 17.9994 32.1657 24.3202H19.3086ZM35.38 24.3202C35.2577 18.3117 33.715 12.4195 30.88 7.13393C34.6614 8.23349 38.0228 10.4653 40.5195 13.5342C43.0162 16.603 44.5305 20.3642 44.8622 24.3202H35.38Z" fill="#EDCE8C"/>
</svg>
