<svg width="60" height="60" viewBox="0 0 60 60" fill="none" xmlns="http://www.w3.org/2000/svg">
<path d="M38.1819 21.8182C38.1819 21.0948 38.4692 20.4011 38.9807 19.8897C39.4921 19.3782 40.1858 19.0909 40.9091 19.0909C41.6324 19.0909 42.3261 19.3782 42.8376 19.8897C43.3491 20.4011 43.6364 21.0948 43.6364 21.8182V38.1818C43.6364 38.9051 43.3491 39.5988 42.8376 40.1103C42.3261 40.6217 41.6324 40.9091 40.9091 40.9091C40.1858 40.9091 39.4921 40.6217 38.9807 40.1103C38.4692 39.5988 38.1819 38.9051 38.1819 38.1818V21.8182ZM35.4546 30L19.0909 39.4472V20.5527L35.4546 30Z" fill="#EDCE8C"/>
<path fill-rule="evenodd" clip-rule="evenodd" d="M0 10.9091C0 8.01582 1.14935 5.24105 3.1952 3.1952C5.24105 1.14935 8.01582 0 10.9091 0H49.0909C51.9842 0 54.7589 1.14935 56.8048 3.1952C58.8507 5.24105 60 8.01582 60 10.9091V49.0909C60 51.9842 58.8507 54.7589 56.8048 56.8048C54.7589 58.8507 51.9842 60 49.0909 60H10.9091C8.01582 60 5.24105 58.8507 3.1952 56.8048C1.14935 54.7589 0 51.9842 0 49.0909V10.9091ZM10.9091 5.45455H49.0909C50.5375 5.45455 51.9249 6.02922 52.9479 7.05214C53.9708 8.07507 54.5455 9.46246 54.5455 10.9091V49.0909C54.5455 50.5375 53.9708 51.9249 52.9479 52.9479C51.9249 53.9708 50.5375 54.5455 49.0909 54.5455H10.9091C9.46246 54.5455 8.07507 53.9708 7.05214 52.9479C6.02922 51.9249 5.45455 50.5375 5.45455 49.0909V10.9091C5.45455 9.46246 6.02922 8.07507 7.05214 7.05214C8.07507 6.02922 9.46246 5.45455 10.9091 5.45455Z" fill="#EDCE8C"/>
</svg>
