<svg width="60" height="60" viewBox="0 0 60 60" fill="none" xmlns="http://www.w3.org/2000/svg">
<path fill-rule="evenodd" clip-rule="evenodd" d="M0 10.9091C0 8.01582 1.14935 5.24105 3.1952 3.1952C5.24105 1.14935 8.01582 0 10.9091 0H49.0909C51.9842 0 54.7589 1.14935 56.8048 3.1952C58.8507 5.24105 60 8.01582 60 10.9091V49.0909C60 51.9842 58.8507 54.7589 56.8048 56.8048C54.7589 58.8507 51.9842 60 49.0909 60H10.9091C8.01582 60 5.24105 58.8507 3.1952 56.8048C1.14935 54.7589 0 51.9842 0 49.0909V10.9091ZM10.9091 5.45455H49.0909C50.5375 5.45455 51.9249 6.02922 52.9479 7.05214C53.9708 8.07507 54.5455 9.46246 54.5455 10.9091V49.0909C54.5455 50.5375 53.9708 51.9249 52.9479 52.9479C51.9249 53.9708 50.5375 54.5455 49.0909 54.5455H10.9091C9.46246 54.5455 8.07507 53.9708 7.05214 52.9479C6.02922 51.9249 5.45455 50.5375 5.45455 49.0909V10.9091C5.45455 9.46246 6.02922 8.07507 7.05214 7.05214C8.07507 6.02922 9.46246 5.45455 10.9091 5.45455V5.45455Z" fill="#EDCE8C"/>
<path d="M47.5678 15.8552L46.0005 16.3228L17.9499 25.0116H13.2821V34.9858H17.9511L20.3609 35.7264L20.3241 35.8424V35.8823C19.538 38.5155 20.9939 41.4429 23.6915 42.2708C23.7037 42.2745 23.7184 42.267 23.7282 42.2708C26.3278 43.0749 29.2054 41.61 30.005 38.8421L30.0417 38.7249L46.0005 43.6746L47.5678 44.1409V15.8552ZM45.1188 19.2066V40.7908L18.5229 32.5297L18.3723 32.4923H15.7311V27.5051H18.3711L18.5241 27.4677L45.1188 19.2053V19.2066ZM22.6948 36.4658L27.7078 37.9868L27.6711 38.1028V38.1402C27.2499 39.5989 25.729 40.3121 24.4188 39.8944C22.9862 39.4668 22.249 37.9569 22.658 36.6216V36.5842L22.6948 36.4658V36.4658Z" fill="#EDCE8C"/>
</svg>
