<svg width="47" height="48" viewBox="0 0 47 48" fill="none" xmlns="http://www.w3.org/2000/svg">
<rect y="0.5" width="47" height="47" rx="23.5" fill="#DD6B30"/>
<path d="M18.2702 35.7497C20.4354 35.7636 22.5817 35.3366 24.5847 34.4933C26.5877 33.65 28.4075 32.4073 29.9385 30.8372C31.4696 29.2671 32.6814 27.4008 33.5037 25.3467C34.326 23.2926 34.7424 21.0915 34.7288 18.8711V18.0955C35.8511 17.2522 36.8226 16.2159 37.6 15.0326C36.5432 15.5067 35.4249 15.821 34.2801 15.966C35.4939 15.2243 36.4046 14.0568 36.8438 12.6796C35.7126 13.3756 34.4722 13.8649 33.1778 14.1256C32.306 13.1731 31.1525 12.5417 29.8956 12.3292C28.6387 12.1166 27.3486 12.3348 26.2248 12.95C25.1011 13.5651 24.2063 14.5429 23.679 15.7321C23.1517 16.9212 23.0212 18.2555 23.3078 19.5283C21.0082 19.4126 18.7582 18.8014 16.7043 17.7347C14.6504 16.6679 12.8385 15.1695 11.3868 13.3369C10.6548 14.6398 10.4329 16.1793 10.7661 17.6437C11.0993 19.1081 11.9627 20.3879 13.1814 21.2241C12.2823 21.1885 11.4041 20.9363 10.6178 20.488V20.5537C10.6098 21.9153 11.0571 23.2386 11.8851 24.3031C12.7131 25.3675 13.8719 26.1088 15.1682 26.4033C14.332 26.634 13.4561 26.6699 12.6046 26.5085C12.9799 27.6697 13.6963 28.6835 14.6555 29.4107C15.6148 30.1379 16.77 30.543 17.9626 30.5704C15.9235 32.2537 13.3892 33.1803 10.7716 33.1995C10.3126 33.1859 9.85475 33.1464 9.40002 33.0812C12.0495 34.8123 15.1287 35.7249 18.2702 35.7102" fill="white"/>
</svg>
