<svg width="60" height="58" viewBox="0 0 60 58" fill="none" xmlns="http://www.w3.org/2000/svg">
<path d="M55.3846 3.19231C51.2821 0.115385 45.641 0.115385 41.5385 3.19231V3.19231C38.633 5.3714 36.9231 8.79126 36.9231 12.4231V21.6538V21.6538C32.8205 18.5769 27.1795 18.5769 23.0769 21.6538V21.6538C20.1715 23.8329 18.4615 27.2528 18.4615 30.8846V40.1154V40.1154C14.359 37.0385 8.71795 37.0385 4.61539 40.1154V40.1154C1.70993 42.2945 0 45.7143 0 49.3462V58H4.61538V49.3462C4.61538 47.1671 5.64135 45.1151 7.38462 43.8077V43.8077C9.84615 41.9615 13.2308 41.9615 15.6923 43.8077L18.4615 45.8846V58H23.0769V30.8846C23.0769 28.7055 24.1029 26.6536 25.8462 25.3462V25.3462C28.3077 23.5 31.6923 23.5 34.1538 25.3462L36.9231 27.4231V58H41.5385V12.4231C41.5385 10.244 42.5644 8.19207 44.3077 6.88462V6.88462C46.7692 5.03846 50.1538 5.03846 52.6154 6.88462V6.88462C54.3587 8.19207 55.3846 10.244 55.3846 12.4231V58H60V12.4231C60 8.79126 58.2901 5.3714 55.3846 3.19231V3.19231Z" fill="#EDCE8C"/>
</svg>
